<?xml version="1.0" encoding="UTF-8" standalone="no"?>
<!-- Created with Inkscape (http://www.inkscape.org/) -->

<svg
   xmlns:osb="http://www.openswatchbook.org/uri/2009/osb"
   xmlns:dc="http://purl.org/dc/elements/1.1/"
   xmlns:cc="http://creativecommons.org/ns#"
   xmlns:rdf="http://www.w3.org/1999/02/22-rdf-syntax-ns#"
   xmlns:svg="http://www.w3.org/2000/svg"
   xmlns="http://www.w3.org/2000/svg"
   xmlns:xlink="http://www.w3.org/1999/xlink"
   xmlns:sodipodi="http://sodipodi.sourceforge.net/DTD/sodipodi-0.dtd"
   xmlns:inkscape="http://www.inkscape.org/namespaces/inkscape"
   width="16"
   height="16"
   viewBox="0 0 16 16"
   version="1.1"
   id="SVGRoot"
   inkscape:export-filename="/home/julius/dejima.png"
   inkscape:export-xdpi="693"
   inkscape:export-ydpi="693"
   inkscape:version="0.92.3 (2405546, 2018-03-11)"
   sodipodi:docname="gambler.svg">
  <sodipodi:namedview
     id="base"
     pagecolor="#ffffff"
     bordercolor="#666666"
     borderopacity="1.0"
     inkscape:pageopacity="0.0"
     inkscape:pageshadow="2"
     inkscape:zoom="32"
     inkscape:cx="8.2245762"
     inkscape:cy="6.4408158"
     inkscape:document-units="px"
     inkscape:current-layer="layer1"
     showgrid="true"
     inkscape:window-width="2560"
     inkscape:window-height="1372"
     inkscape:window-x="1440"
     inkscape:window-y="867"
     inkscape:window-maximized="1"
     inkscape:grid-bbox="true"
     inkscape:snap-page="true"
     inkscape:snap-object-midpoints="true"
     inkscape:snap-bbox="true"
     inkscape:snap-bbox-midpoints="true"
     inkscape:snap-global="true"
     fit-margin-top="0"
     fit-margin-left="0"
     fit-margin-right="0"
     fit-margin-bottom="0"
     inkscape:snap-grids="true">
    <inkscape:grid
       type="xygrid"
       id="grid2231"
       spacingx="1"
       spacingy="1"
       originx="-48"
       originy="0"
       empspacing="4" />
  </sodipodi:namedview>
  <defs
     id="defs1366">
    <linearGradient
       inkscape:collect="always"
       id="linearGradient872">
      <stop
         style="stop-color:#9d50bb;stop-opacity:1"
         offset="0"
         id="stop868" />
      <stop
         style="stop-color:#6e48aa;stop-opacity:0.94117647"
         offset="1"
         id="stop870" />
    </linearGradient>
    <marker
       inkscape:stockid="Arrow1Lstart"
       orient="auto"
       refY="0"
       refX="0"
       id="Arrow1Lstart"
       style="overflow:visible"
       inkscape:isstock="true">
      <path
         id="path1955"
         d="M 0,0 5,-5 -12.5,0 5,5 Z"
         style="fill:#ff6600;fill-opacity:1;fill-rule:evenodd;stroke:#000000;stroke-width:1.00000003pt;stroke-opacity:1"
         transform="matrix(0.8,0,0,0.8,10,0)"
         inkscape:connector-curvature="0" />
    </marker>
    <linearGradient
       id="linearGradient1951"
       osb:paint="solid">
      <stop
         style="stop-color:#000000;stop-opacity:1;"
         offset="0"
         id="stop1949" />
    </linearGradient>
    <linearGradient
       inkscape:collect="always"
       xlink:href="#linearGradient872"
       id="linearGradient874"
       x1="56"
       y1="50"
       x2="56"
       y2="62"
       gradientUnits="userSpaceOnUse" />
  </defs>
  <metadata
     id="metadata1369">
    <rdf:RDF>
      <cc:Work
         rdf:about="">
        <dc:format>image/svg+xml</dc:format>
        <dc:type
           rdf:resource="http://purl.org/dc/dcmitype/StillImage" />
        <dc:title></dc:title>
      </cc:Work>
    </rdf:RDF>
  </metadata>
  <g
     id="layer1"
     inkscape:groupmode="layer"
     inkscape:label="Taso 1"
     transform="translate(-48,-48)">
    <circle
       style="opacity:1;fill:url(#linearGradient874);fill-opacity:1;stroke:none;stroke-width:0.74078739;stroke-linecap:round;stroke-linejoin:round;stroke-miterlimit:4;stroke-dasharray:none;stroke-opacity:1;paint-order:normal"
       id="path2239"
       cx="56"
       cy="56"
       r="8" />
    <g
       aria-label="賭"
       style="font-style:normal;font-weight:normal;font-size:40px;line-height:1.25;font-family:sans-serif;letter-spacing:0px;word-spacing:0px;fill:#ffffff;fill-opacity:1;stroke:none"
       id="text2257">
      <path
         d="m 53.33,58.576 q 0.144,0.06 0.36,0.132 0.228,0.06 0.396,0.132 0.168,0.072 0.324,0.204 0.492,0.432 0.648,1.044 0.144,0.564 -0.18,0.756 -0.36,0.204 -0.756,-0.216 -0.12,-0.132 -0.18,-0.288 -0.048,-0.144 -0.096,-0.348 -0.036,-0.204 -0.084,-0.336 z m 6.516,-7.74 q 0.144,0.132 0.372,0.312 0.228,0.168 0.396,0.324 0.168,0.156 0.312,0.372 0.036,0.048 -0.024,0.072 -0.048,0.024 -0.144,0.048 -0.084,0.024 -0.12,0.06 -0.228,0.264 -0.528,0.684 -0.288,0.42 -0.48,0.648 l -0.588,0.72 h 0.84 q 0.132,-0.12 0.36,-0.444 0.228,-0.324 0.396,-0.384 0.084,0.012 0.192,0.084 0.12,0.072 0.252,0.204 0.144,0.132 0.252,0.252 0.108,0.108 0.264,0.288 0.156,0.168 0.228,0.252 0.072,0.156 -0.036,0.252 -0.108,0.096 -0.288,0.096 h -2.964 q -0.216,0.24 -0.456,0.48 l -0.708,0.72 h 2.22 q 0.06,-0.048 0.144,-0.168 0.096,-0.132 0.168,-0.192 0.084,-0.06 0.192,-0.036 0.504,0.144 0.828,0.756 0.036,0.072 0,0.132 -0.036,0.048 -0.132,0.12 -0.084,0.06 -0.12,0.108 v 3.996 q -0.06,0.228 -0.108,0.324 -0.036,0.108 -0.144,0.204 -0.108,0.108 -0.288,0.12 -0.3,-0.024 -0.504,-0.54 h -2.496 q -0.06,0.204 -0.108,0.3 -0.036,0.108 -0.144,0.204 -0.108,0.096 -0.276,0.108 -0.324,-0.024 -0.54,-0.648 v -3.72 q -0.216,0.144 -0.42,0.228 -0.204,0.084 -0.516,0.18 -0.3,0.096 -0.432,0.144 v 0.36 q -0.06,0.228 -0.108,0.336 -0.036,0.096 -0.144,0.204 -0.108,0.096 -0.288,0.108 -0.24,-0.024 -0.408,-0.324 h -1.536 q -0.084,0.312 -0.156,0.42 0.06,0.024 0.204,0.108 0.156,0.072 0.216,0.12 0.072,0.036 0.168,0.132 0.108,0.084 0.18,0.192 0.048,0.072 0,0.132 -0.036,0.048 -0.144,0.12 -0.108,0.072 -0.144,0.108 -0.156,0.156 -0.42,0.444 -0.252,0.3 -0.456,0.492 -0.192,0.204 -0.456,0.396 -0.12,0.084 -0.24,0.12 -0.12,0.036 -0.288,0.048 -0.156,0.024 -0.264,0.048 0.084,-0.12 0.192,-0.3 0.108,-0.168 0.192,-0.312 0.096,-0.132 0.192,-0.288 0.192,-0.336 0.468,-0.864 l 0.228,-0.468 q -0.012,0 -0.012,0 -0.324,-0.024 -0.54,-0.648 v -7.668 q 0.18,0.084 0.516,0.18 0.336,0.096 0.492,0.18 h 1.476 q 0.072,-0.048 0.156,-0.168 0.084,-0.132 0.156,-0.192 0.084,-0.06 0.192,-0.036 0.504,0.132 0.828,0.756 0.036,0.072 -0.012,0.132 -0.036,0.048 -0.12,0.12 -0.084,0.06 -0.12,0.108 v 5.82 q 0.12,-0.108 0.3,-0.264 0.192,-0.156 0.3,-0.252 0.108,-0.096 0.264,-0.24 0.168,-0.156 0.324,-0.312 l 0.18,-0.18 v -0.576 q 0.168,0.072 0.396,0.144 0.384,-0.42 0.912,-1.056 h -2.316 v -0.6 h 1.404 v -1.524 h -1.44 v -0.6 h 1.44 V 50.08 q 0.18,0.084 0.456,0.168 0.288,0.072 0.492,0.168 0.216,0.084 0.384,0.276 0.06,0.12 0.024,0.18 -0.024,0.06 -0.132,0.192 -0.108,0.12 -0.144,0.204 v 0.684 h 0.72 q 0.276,-0.432 0.576,-0.54 0.12,0.012 0.168,0.084 0.048,0.072 0.096,0.24 0.06,0.156 0.12,0.264 l 0.264,-0.48 q 0.06,-0.12 0.12,-0.216 0.06,-0.108 0.12,-0.24 0.072,-0.132 0.12,-0.228 z m -7.476,0.636 q -0.12,0.144 -0.156,0.228 v 1.32 h 1.404 v -1.548 z m -0.156,2.148 v 1.692 h 1.404 V 53.62 Z m 0,2.292 v 1.668 h 1.404 v -1.668 z m 5.328,-3.36 v 1.524 h 0.312 q 0.384,-0.492 0.84,-1.188 l 0.216,-0.336 z m -0.18,3.924 q -0.192,0.252 -0.216,0.3 v 0.984 h 2.448 v -1.284 z m -0.216,1.884 v 1.74 h 2.448 v -1.74 z"
         style="font-style:normal;font-variant:normal;font-weight:normal;font-stretch:normal;font-size:12px;font-family:dejima;-inkscape-font-specification:dejima;fill:#ffffff"
         id="path876" />
    </g>
  </g>
</svg>
